<svg width="16.000000" height="16.000000" viewBox="0 0 16 16" fill="none" xmlns="http://www.w3.org/2000/svg" xmlns:xlink="http://www.w3.org/1999/xlink">
	<desc>
			Created with Pixso.
	</desc>
	<defs>
		<clipPath id="clip11_11326">
			<rect id="arrow/custom / down" width="16.000000" height="16.000000" transform="translate(0.000000 16.000000) rotate(-90.000000)" fill="white" fill-opacity="0"/>
		</clipPath>
	</defs>
	<g clip-path="url(#clip11_11326)">
		<path id="Vector" d="M11.16 8.41L6.41 13.16C6.36 13.21 6.29 13.25 6.22 13.28C6.15 13.31 6.07 13.33 6 13.33C5.92 13.33 5.84 13.31 5.77 13.28C5.7 13.25 5.63 13.21 5.58 13.16L5.03 12.6C4.92 12.49 4.86 12.34 4.86 12.19C4.86 12.03 4.92 11.88 5.03 11.77L8.79 8L5.03 4.22C4.92 4.11 4.85 3.96 4.85 3.8C4.85 3.65 4.92 3.5 5.03 3.39L5.58 2.83C5.69 2.72 5.84 2.66 5.99 2.66C6.15 2.66 6.3 2.72 6.41 2.83L11.16 7.58C11.27 7.69 11.33 7.84 11.33 7.99C11.33 8.15 11.27 8.3 11.16 8.41Z" fill="#798599" fill-opacity="1.000000" fill-rule="nonzero"/>
	</g>
</svg>
