<svg width="6.473267" height="10.666687" viewBox="0 0 6.47327 10.6667" fill="none" xmlns="http://www.w3.org/2000/svg" xmlns:xlink="http://www.w3.org/1999/xlink">
	<desc>
			Created with Pixso.
	</desc>
	<defs/>
	<path id="Vector" d="M0.17 4.91L4.91 0.17C4.97 0.11 5.03 0.07 5.1 0.04C5.17 0.01 5.25 0 5.33 0C5.4 0 5.48 0.01 5.55 0.04C5.62 0.07 5.69 0.11 5.74 0.17L6.3 0.72C6.41 0.83 6.47 0.98 6.47 1.14C6.47 1.29 6.41 1.44 6.3 1.55L2.54 5.33L6.3 9.11C6.41 9.22 6.47 9.37 6.47 9.52C6.47 9.68 6.41 9.83 6.3 9.94L5.74 10.49C5.63 10.6 5.48 10.66 5.33 10.66C5.17 10.66 5.02 10.6 4.91 10.49L0.17 5.74C0.06 5.63 0 5.48 0 5.33C-0.01 5.17 0.06 5.02 0.17 4.91Z" fill="#5F6877" fill-opacity="1.000000" fill-rule="nonzero"/>
</svg>
