<svg width="10.000000" height="10.000000" viewBox="0 0 10 10" fill="none" xmlns="http://www.w3.org/2000/svg" xmlns:xlink="http://www.w3.org/1999/xlink">
	<desc>
			Created with Pixso.
	</desc>
	<defs/>
	<path id="Vector" d="M6.66 5L9.67 1.99C9.88 1.77 10 1.47 10 1.16C9.99 0.85 9.87 0.56 9.65 0.34C9.43 0.12 9.14 0 8.83 0C8.52 -0.01 8.22 0.11 8 0.32L5 3.33L1.99 0.32C1.77 0.11 1.47 -0.01 1.16 0C0.85 0 0.56 0.12 0.34 0.34C0.12 0.56 0 0.85 0 1.16C-0.01 1.47 0.11 1.77 0.32 1.99L3.33 5L0.32 8C0.11 8.22 -0.01 8.52 0 8.83C0 9.14 0.12 9.43 0.34 9.65C0.56 9.87 0.85 9.99 1.16 10C1.47 10 1.77 9.88 1.99 9.67L5 6.66L8 9.67C8.22 9.88 8.52 10 8.83 10C9.14 9.99 9.43 9.87 9.65 9.65C9.87 9.43 9.99 9.14 10 8.83C10 8.52 9.88 8.22 9.67 8L6.66 5Z" fill="#B8BFCC" fill-opacity="1.000000" fill-rule="nonzero"/>
</svg>
