<svg width="14.913940" height="16.000366" viewBox="0 0 14.9139 16.0004" fill="none" xmlns="http://www.w3.org/2000/svg" xmlns:xlink="http://www.w3.org/1999/xlink">
	<desc>
			Created with Pixso.
	</desc>
	<defs/>
	<path id="Vector" d="M9.5 0L5.41 0C5.13 0 4.86 0.11 4.67 0.3C4.47 0.5 4.36 0.76 4.36 1.04L4.36 2.4L0 2.4L0 3.65L1.3 3.65L2.34 15.42C2.35 15.58 2.42 15.72 2.54 15.83C2.65 15.94 2.8 16 2.96 16L11.92 16C12.08 16 12.23 15.94 12.35 15.83C12.46 15.72 12.53 15.58 12.55 15.42L13.58 3.65L14.91 3.65L14.91 2.4L10.54 2.4L10.54 1.04C10.54 0.76 10.43 0.5 10.24 0.3C10.04 0.11 9.78 0 9.5 0ZM5.61 2.4L5.61 1.25L9.29 1.25L9.29 2.4L5.61 2.4ZM11.35 14.74L3.54 14.74L2.56 3.65L12.32 3.65L11.35 14.74ZM10.5 5.51L9.25 5.46L8.98 12.88L10.23 12.92L10.5 5.51ZM5.93 12.88L5.65 5.46L4.4 5.51L4.67 12.93L5.93 12.88ZM8.08 5.49L6.83 5.49L6.83 12.9L8.08 12.9L8.08 5.49Z" fill="#B8BFCC" fill-opacity="1.000000" fill-rule="evenodd"/>
</svg>
