<svg width="14.473267" height="18.666687" viewBox="0 0 14.4733 18.6667" fill="none" xmlns="http://www.w3.org/2000/svg" xmlns:xlink="http://www.w3.org/1999/xlink">
	<desc>
			Created with Pixso.
	</desc>
	<defs>
		<filter id="filter_11_11327_dd" x="0.000000" y="0.000000" width="14.473267" height="18.666687" filterUnits="userSpaceOnUse" color-interpolation-filters="sRGB">
			<feFlood flood-opacity="0" result="BackgroundImageFix"/>
			<feColorMatrix in="SourceAlpha" type="matrix" values="0 0 0 0 0 0 0 0 0 0 0 0 0 0 0 0 0 0 127 0" result="hardAlpha"/>
			<feOffset dx="0" dy="4"/>
			<feGaussianBlur stdDeviation="1.33333"/>
			<feComposite in2="hardAlpha" operator="out" k2="-1" k3="1"/>
			<feColorMatrix type="matrix" values="0 0 0 0 0 0 0 0 0 0 0 0 0 0 0 0 0 0 0.25 0"/>
			<feBlend mode="normal" in2="BackgroundImageFix" result="effect_dropShadow_1"/>
			<feBlend mode="normal" in="SourceGraphic" in2="effect_dropShadow_1" result="shape"/>
		</filter>
	</defs>
	<g filter="url(#filter_11_11327_dd)">
		<path id="Vector" d="M10.3 5.74L5.55 10.49C5.5 10.54 5.43 10.59 5.36 10.62C5.29 10.65 5.21 10.66 5.14 10.66C5.06 10.66 4.98 10.65 4.91 10.62C4.84 10.59 4.78 10.54 4.72 10.49L4.17 9.94C4.06 9.83 4 9.68 4 9.52C4 9.37 4.06 9.22 4.17 9.11L7.93 5.33L4.17 1.55C4.06 1.44 4 1.29 4 1.13C4 0.98 4.06 0.83 4.17 0.72L4.72 0.17C4.83 0.06 4.98 0 5.13 0C5.29 0 5.44 0.06 5.55 0.17L10.3 4.91C10.41 5.02 10.47 5.17 10.47 5.33C10.47 5.48 10.41 5.63 10.3 5.74Z" fill="#798599" fill-opacity="1.000000" fill-rule="nonzero"/>
	</g>
</svg>
