<svg width="10.666626" height="6.473267" viewBox="0 0 10.6666 6.47327" fill="none" xmlns="http://www.w3.org/2000/svg" xmlns:xlink="http://www.w3.org/1999/xlink">
	<desc>
			Created with Pixso.
	</desc>
	<defs/>
	<path id="Vector" d="M4.91 6.3L0.17 1.55C0.11 1.5 0.07 1.43 0.04 1.36C0.01 1.29 0 1.21 0 1.14C0 1.06 0.01 0.98 0.04 0.91C0.07 0.84 0.11 0.78 0.17 0.72L0.72 0.17C0.83 0.06 0.98 0 1.14 0C1.29 0 1.44 0.06 1.55 0.17L5.33 3.93L9.11 0.17C9.22 0.06 9.37 0 9.52 0C9.68 0 9.83 0.06 9.94 0.17L10.49 0.72C10.6 0.83 10.66 0.98 10.66 1.13C10.66 1.29 10.6 1.44 10.49 1.55L5.74 6.3C5.63 6.41 5.48 6.47 5.33 6.47C5.17 6.47 5.02 6.41 4.91 6.3Z" fill="#798599" fill-opacity="1.000000" fill-rule="nonzero"/>
</svg>
