<svg width="18.000000" height="18.000000" viewBox="0 0 18 18" fill="none" xmlns="http://www.w3.org/2000/svg" xmlns:xlink="http://www.w3.org/1999/xlink">
	<desc>
			Created with Pixso.
	</desc>
	<defs/>
	<path id="Vector" d="M7.37 0C11.44 0 14.75 3.25 14.75 7.27C14.75 9.08 14.08 10.74 12.97 12.01L17.82 16.94C18.06 17.18 18.05 17.58 17.8 17.82C17.55 18.06 17.15 18.05 16.91 17.81L12.06 12.88C10.79 13.92 9.15 14.55 7.37 14.55C3.3 14.55 0 11.29 0 7.27C0 3.25 3.3 0 7.37 0ZM7.37 1.24C4 1.24 1.26 3.94 1.26 7.27C1.26 10.6 4 13.3 7.37 13.3C10.75 13.3 13.48 10.6 13.48 7.27C13.48 3.94 10.75 1.24 7.37 1.24Z" fill="#949596" fill-opacity="1.000000" fill-rule="nonzero"/>
</svg>
